<?xml version="1.0" encoding="UTF-8"?>
<svg id="Layer_1" data-name="Layer 1" xmlns="http://www.w3.org/2000/svg" viewBox="0 0 100 100">
  <defs>
    <style>
      .cls-1 {
        fill: #fff;
      }

      .cls-1, .cls-2 {
        stroke-width: 0px;
      }

      .cls-2 {
        fill: #388ee9;
      }
    </style>
  </defs>
  <circle class="cls-2" cx="50" cy="50" r="44.47"/>
  <g>
    <path class="cls-1" d="m41.1,35.97l-6.17-.88.11.68c.22,1.41,1.37,2.49,2.79,2.61h.12c1.52.14,2.88-.91,3.15-2.41Z"/>
    <path class="cls-1" d="m62.69,55.09c6.61-1.9,11.23-8.04,11.23-14.93,0-8.57-6.96-15.54-15.52-15.54h-28.32v5.96c5.74-1.83,12.62.69,15.65,4.39,0,0,14.47-1.25,16.55,8.17,0,0-13.71-5.82-21.34,4.95-1.81,2.56-2.25,5.65-3.36,9.44-2.07,7.06-3.28,12.32-6.01,17.85h9.91l3.53-16.53h5.6l9.79,16.53h12.6l-11.69-19.58,1.26-.67.14-.04Z"/>
  </g>
</svg>