<?xml version="1.0" encoding="utf-8"?>
<!-- Generator: Adobe Illustrator 27.9.0, SVG Export Plug-In . SVG Version: 6.00 Build 0)  -->
<svg version="1.1" id="Layer_1" xmlns="http://www.w3.org/2000/svg" xmlns:xlink="http://www.w3.org/1999/xlink" x="0px" y="0px"
	 viewBox="0 0 100 100" style="enable-background:new 0 0 100 100;" xml:space="preserve">
<style type="text/css">
	.st0{fill:#A7A8AB;}
	.st1{fill:#808284;}
	.st2{fill:#59595B;}
	.st3{fill:#D1D2D4;}
	.st4{fill:#221F1F;}
	.st5{fill:#982224;}
	.st6{fill:#630F16;}
	.st7{fill:#2B1315;}
	.st8{fill:#E7282D;}
</style>
<g>
	<g id="XMLID_14_">
		<rect id="XMLID_16_" x="2.5" y="31" class="st0" width="45.5" height="9.1"/>
		<rect id="XMLID_15_" x="2.5" y="45.8" class="st1" width="45.5" height="9.1"/>
		<rect id="XMLID_31_" x="2.5" y="59.2" class="st2" width="45.5" height="9.1"/>
		<rect id="XMLID_32_" x="2.5" y="16.5" class="st3" width="45.5" height="9.1"/>
		<rect id="XMLID_33_" x="2.5" y="74" class="st4" width="45.5" height="9.1"/>
	</g>
	<rect id="XMLID_34_" x="53.5" y="31" class="st5" width="19.4" height="9.1"/>
	<rect id="XMLID_35_" x="53.5" y="45.8" class="st6" width="19.4" height="9.1"/>
	<rect id="XMLID_36_" x="53.5" y="59.2" class="st7" width="19.4" height="9.1"/>
	<rect id="XMLID_37_" x="53.5" y="16.5" class="st8" width="19.4" height="9.1"/>
	<rect id="XMLID_38_" x="53.5" y="74" class="st4" width="19.4" height="9.1"/>
	<g id="XMLID_39_">
		<rect id="XMLID_40_" x="78.1" y="31.4" class="st0" width="19.4" height="9.1"/>
		<rect id="XMLID_41_" x="78.1" y="46.1" class="st1" width="19.4" height="9.1"/>
		<rect id="XMLID_42_" x="78.1" y="59.7" class="st2" width="19.4" height="9.1"/>
		<rect id="XMLID_43_" x="78.1" y="16.9" class="st3" width="19.4" height="9.1"/>
		<rect id="XMLID_45_" x="78.1" y="74.4" class="st4" width="19.4" height="9.1"/>
	</g>
</g>
</svg>
