<?xml version="1.0" encoding="utf-8"?>
<!-- Generator: Adobe Illustrator 27.9.0, SVG Export Plug-In . SVG Version: 6.00 Build 0)  -->
<svg version="1.1" id="Layer_1" xmlns="http://www.w3.org/2000/svg" xmlns:xlink="http://www.w3.org/1999/xlink" x="0px" y="0px"
	 viewBox="0 0 372.8 83.5" style="enable-background:new 0 0 372.8 83.5;" xml:space="preserve">
<style type="text/css">
	.st0{fill:#131210;}
	.st1{fill:#2CABE1;}
</style>
<g id="g2466">
	<g id="g2472" transform="translate(11.8857,11.5225)">
		<path id="path2474" class="st0" d="M5.7,55.2H-9.6c-0.6,0-0.9-0.2-0.9-0.7V-9.8c0-0.5,0.3-0.8,0.9-0.8H5.6c0.6,0,1,0.2,1,0.8v4
			c0,0.6-0.3,0.7-0.9,0.7h-6.8c-0.8,0-1.1,0.3-1.1,0.9V49c0,0.6,0.3,0.8,1,0.8h6.8c0.6,0,1,0.2,1,0.7v4C6.7,55,6.4,55.2,5.7,55.2"/>
	</g>
	<g id="g2476" transform="translate(37.5488,30.5913)">
		<path id="path2478" class="st1" d="M15.1,10.1c-4,1.2-6.8,3.5-6.8,7.4v11.2c0,8.4-8,7.4-17.9,7.4h-1.5c-0.6,0-1-0.2-1-0.8v-3.9
			c0-0.6,0.3-0.8,0.9-0.8h1.2c5.9,0,10,1.3,10-3.4V16.7c0-3.3,2.3-7.9,6.9-9.5C7.2,7.1,7.3,7,7.3,6.8S7.2,6.4,6.9,6.2
			C2.7,4.3,0,1.2,0-2.6v-12.2c0-4.7-4.1-9.4-10-9.4h-1.2c-0.6,0-0.9-0.2-0.9-0.8v-3.9c0-0.6,0.4-0.8,1-0.8h1.5c9.9,0,18,7.1,18,15.4
			v10.2c0,3.9,2.8,6.1,6.9,7.5c1.5,0.5,2.4,0.6,2.4,1.7v3.2C17.7,9.2,17,9.6,15.1,10.1"/>
	</g>
	<g id="g2480" transform="translate(23.0029,38.9136)">
		<path id="path2482" class="st0" d="M9.8-9.6C9.8-8.7,9-8,8-8H3.9c-1,0-1.8-0.7-1.8-1.6v-3.7c0-0.9,0.8-1.6,1.8-1.6H8
			c1,0,1.8,0.7,1.8,1.6V-9.6z"/>
	</g>
	<g id="g2484" transform="translate(57.2598,11.4556)">
		<path id="path2486" class="st0" d="M22.3,55.4c-5.8,0-10.4-1.4-14.2-5.2l3.4-3.5c2.7,3,6.5,4.2,10.8,4.2c5.7,0,9.2-2.1,9.2-6.4
			c0-3.1-1.8-4.9-5.8-5.3L20,38.7C13.2,38.1,9.7,35,9.7,29.1c0-6.6,5.3-10.5,12.7-10.5c4.9,0,9.4,1.2,12.5,3.9l-3.3,3.4
			c-2.5-2-5.6-2.9-9.2-2.9c-5.1,0-7.7,2.3-7.7,5.9c0,3.1,1.7,4.9,6.1,5.3l5.6,0.5c6,0.6,10.2,3,10.2,9.7
			C36.4,51.3,30.7,55.4,22.3,55.4"/>
	</g>
	<g id="g2488" transform="translate(88.2803,11.7769)">
		<path id="path2490" class="st0" d="M33.6,54.6v-4c-2.5,2.9-5.9,4.5-9.8,4.5c-3.7,0-6.8-1.2-8.9-3.4c-2.5-2.5-3.5-5.9-3.5-10.1
			V18.7h5.1v22.1c0,6.4,3.2,9.6,8.4,9.6c5.2,0,8.7-3.3,8.7-9.6V18.7h5.1v36h-5.1V54.6z"/>
	</g>
	<g id="g2492" transform="translate(108.7363,35.0063)">
		<path id="path2494" class="st0" d="M41.1-0.3c-7.5,0-8.7,6.7-8.7,13.7s1.2,13.7,8.7,13.7s8.7-6.7,8.7-13.7
			C49.8,6.4,48.6-0.3,41.1-0.3 M50.6,28.7c-1.8,1.9-4.9,3.1-8.4,3.1c-3.8,0-7-0.9-9.8-4.7v20.3h-5.1v-52h5.1v4.2
			c2.8-3.8,6-4.7,9.8-4.7c3.5,0,6.6,1.2,8.4,3.1c3.5,3.7,4.2,9.6,4.2,15.3C54.8,19,54.1,25,50.6,28.7"/>
	</g>
	<g id="g2496" transform="translate(139.0879,31.2075)">
		<path id="path2498" class="st0" d="M52.2,8.6c-1.3-3.3-4.4-5.4-8.1-5.4S37.3,5.3,36,8.6c-0.8,2-0.9,3.1-1.1,6h18.3
			C53.1,11.7,53,10.6,52.2,8.6 M35,18.6C35,26.5,38.6,31,45.2,31c4,0,6.3-1.2,9.1-4.1l3.4,3.1c-3.5,3.7-6.8,5.6-12.7,5.6
			c-9.1,0-15.1-5.7-15.1-18.4c0-11.6,5.4-18.4,14.2-18.4c8.9,0,14.2,6.7,14.2,17.4v2.4H35z"/>
	</g>
	<g id="g2500" transform="translate(163.0498,33.0811)">
		<path id="path2502" class="st0" d="M61,4.2c-1.9-2-3.3-2.6-6-2.6c-5.1,0-8.3,4.2-8.3,9.6v22.1h-5.1v-36h5.1v4.4
			c1.9-3,5.7-4.8,9.7-4.8c3.3,0,5.8,0.8,8.3,3.4L61,4.2z"/>
	</g>
	<g id="g2504" transform="translate(185.2637,11.3389)">
		<path id="path2506" class="st0" d="M69.1,55.6v-3.4C66.7,54.7,63.3,56,60,56c-3.7,0-6.6-1.2-8.7-3.2c-3-3-3.7-6.4-3.7-10.4V19h9.2
			v22.2c0,5,3.2,6.7,6,6.7c2.9,0,6.1-1.7,6.1-6.7V19H78v36.7h-8.9V55.6z"/>
	</g>
	<g id="g2508" transform="translate(207.709,11.0288)">
		<path id="path2510" class="st0" d="M77.3,56.4c-5.8,0-11-0.6-15.6-5.3l6-6c3,3,7,3.4,9.8,3.4c3.2,0,6.5-1.1,6.5-3.8
			c0-1.8-1-3.1-3.9-3.4l-5.8-0.6c-6.6-0.6-10.7-3.5-10.7-10.3c0-7.6,6.7-11.7,14.1-11.7c5.7,0,10.5,1,14,4.3l-5.6,5.7
			c-2.1-1.9-5.3-2.5-8.5-2.5c-3.7,0-5.2,1.7-5.2,3.5c0,1.3,0.6,2.9,3.8,3.2l5.8,0.6c7.2,0.7,10.9,4.6,10.9,10.8
			C92.8,52.5,85.9,56.4,77.3,56.4"/>
	</g>
	<g id="g2512" transform="translate(239.3066,30.1475)">
		<path id="path2514" class="st0" d="M88.8,11.2c-1-2.2-3-3.8-6.1-3.8s-5.1,1.6-6.1,3.8c-0.6,1.3-0.8,2.3-0.8,3.9h13.9
			C89.6,13.5,89.4,12.5,88.8,11.2 M75.7,21.4c0,4.7,2.9,8.2,8,8.2c4,0,6-1.1,8.3-3.4l5.6,5.4c-3.7,3.7-7.3,5.8-13.9,5.8
			c-8.7,0-17-3.9-17-18.8c0-12,6.5-18.7,16-18.7c10.2,0,16,7.5,16,17.5v4.1h-23V21.4z"/>
	</g>
	<g id="g2516" transform="translate(265.9609,30.8682)">
		<path id="path2518" class="st0" d="M98.5,9.4c-1.4-1.4-2.6-2.2-4.9-2.2c-2.8,0-5.9,2.1-5.9,6.8v22.1h-9.2V-0.6h8.9v3.5
			C89.2,0.8,92.7-1,96.6-1c3.6,0,6.1,0.9,8.7,3.4L98.5,9.4z"/>
	</g>
</g>
</svg>
