<?xml version="1.0" encoding="UTF-8"?>
<svg xmlns="http://www.w3.org/2000/svg">
    <path
        d=" M.5 37.01c-.3 0-.5-.1-.5-.4V.43c0-.3.2-.4.5-.4h8.91c.3 0 .6.1.6.4v2.2c0 .3-.2.4-.5.4h-4.9c-.5 0-.6.2-.6.5V33.6c0 .3.2.4.6.4h4.8c.3 0 .6.1.6.4v2.12c-.1.3-.2.5-.6.5H.5z"
        fill=" #000" />
    <path
        d=" M24.03 26.5v6.3c0 4.7-4.03 4.2-9.53 4.2h-.9c-.3 0-.6-.1-.6-.4v-2.2c0-.3.2-.4.5-.4h.7c3.3 0 5.8.7 5.8-1.9v-6c0-1.9 1.3-4.4 3.9-5.4.2 0 .2-.1.2-.2s-.1-.2-.2-.3c-2.4-1.1-3.9-2.8-3.9-5V8.3C20 5.7 17.52 3 14.22 3h-.7c-.3 0-.5-.1-.5-.4V.4c0-.3.2-.4.6-.4h.9c5.6 0 9.53 4 9.53 8.7v5.7c0 2.2 1.41 3.4 3.71 4.2.9.3 1.3.3 1.3 1v1.8c0 .4-.4.6-1.5.9-2.3.7-3.52 2-3.52 4.2z"
        fill=" #38A1CE" />
    <path
        d=" M17.01 16.1c0 .5-.5.9-1 .9h-2c-.6 0-1-.4-1-.9V13.9c0-.5.5-.9 1-.9h2c.6 0 1 .4 1 .9v2.21zM43.87 36.96c-3.3"
        fill=" #000" />
</svg>