<?xml version="1.0" encoding="UTF-8"?>
<svg id="Layer_1" data-name="Layer 1" xmlns="http://www.w3.org/2000/svg" viewBox="0 0 162.7 44.94">
  <defs>
    <style>
      .cls-1 {
        fill: #595b71;
      }

      .cls-1, .cls-2, .cls-3, .cls-4, .cls-5, .cls-6 {
        stroke-width: 0px;
      }

      .cls-2 {
        fill: #7bd85d;
      }

      .cls-3 {
        fill: #f75e71;
      }

      .cls-4 {
        fill: #c40236;
      }

      .cls-5 {
        fill: #292428;
      }

      .cls-6 {
        fill: #efefef;
      }
    </style>
  </defs>
  <g>
    <path class="cls-6" d="m89.19,2.59h-15.94c-1.66,0-3,1.35-3,3v34.38c0,1.66,1.35,3,3,3h15.94c1.66,0,3-1.35,3-3V5.59c0-1.66-1.35-3-3-3Zm-18.03,6.53h20.12v27.3h-20.12V9.13Zm2.09-5.62h15.94c1.15,0,2.09.94,2.09,2.09v2.62h-20.12v-2.62c0-1.15.94-2.09,2.09-2.09Zm15.94,38.56h-15.94c-1.15,0-2.09-.94-2.09-2.09v-2.64h20.12v2.64c0,1.15-.94,2.09-2.09,2.09Z"/>
    <path class="cls-6" d="m79.24,6.35h3.96c.25,0,.46-.2.46-.46s-.2-.46-.46-.46h-3.96c-.25,0-.46.2-.46.46s.2.46.46.46Z"/>
    <path class="cls-6" d="m81.62,39.2h-.81c-.25,0-.46.2-.46.46s.2.46.46.46h.81c.25,0,.46-.2.46-.46s-.2-.46-.46-.46Z"/>
  </g>
  <g>
    <path class="cls-4" d="m22.48,34.99c-.14,0-.28,0-.43-.02-.38-.04-.77-.13-1.23-.31-.43-.17-.83-.43-1.22-.82l-14.5-14.38c-.15-.15-.31-.3-.46-.45-.26-.26-.56-.56-.78-.94-.13-.22-.21-.46-.24-.74-.02-.2-.02-.4-.02-.59,0-.13,0-.26,0-.39,0-.12,0-.24,0-.37v-.16c0-.06-.02-.13-.05-.22-.03-.1-.08-.25-.04-.43.04-.15.16-.27.31-.32.16-.04.32,0,.43.11.06.06.11.12.17.18.08.09.15.17.21.21l.55.38c1.21.83,2.34,1.75,3.19,2.46,1.05.87,2.13,1.82,3.2,2.84,1.1,1.04,2.23,2.17,3.44,3.46,1.39,1.48,2.74,3.01,4.03,4.57.33.4.66.81.99,1.22l.47.58c.33.41.71.71,1.15.92.58.27,1.15.38,1.72.33.36-.03.7-.11,1.02-.24.47-.19.94-.39,1.41-.59.48-.21.91-.37,1.34-.53,1.05-.38,2.11-.73,3.15-1.04.36-.11.73-.2,1.09-.29.23-.06.46-.12.69-.18l.26-.07c.28-.07.54-.14.79-.24.09-.04.2-.04.29-.02.14.01.24.09.32.21.07.12.06.27,0,.4-.06.15-.12.29-.17.44-.12.32-.25.64-.4.95-.27.53-.71.91-1.32,1.11-.13.05-.27.09-.4.14l-.43.15c-.27.09-.54.19-.81.28-.21.07-.42.14-.63.22l-.35.13c-.19.07-.39.13-.58.19l-3.87,1.29c-.2.07-.41.14-.61.21l-.54.19c-.35.12-.73.18-1.13.18ZM4.49,16.34c0,.13,0,.27,0,.4,0,.17,0,.33.01.5.01.15.05.26.11.37.17.28.42.53.65.77.15.15.3.3.45.44l14.5,14.38c.3.3.6.5.92.62.38.15.69.23.99.25.45.04.84,0,1.19-.12l.53-.18c.21-.07.41-.14.62-.21l3.87-1.29c.19-.06.38-.12.56-.19l.34-.12c.22-.08.44-.16.66-.23.27-.09.53-.18.79-.27l.42-.15c.14-.05.28-.1.42-.15.38-.13.65-.35.81-.67.08-.15.15-.31.21-.47,0,0-.02,0-.03,0l-.25.06c-.23.06-.47.12-.71.18-.35.09-.71.18-1.05.28-1.03.31-2.07.65-3.1,1.03-.41.15-.82.31-1.23.48-.54.23-1.01.43-1.49.62-.4.16-.83.26-1.28.3-.72.06-1.43-.08-2.16-.41-.57-.26-1.05-.64-1.47-1.16l-.47-.58c-.09-.11-.17-.21-.26-.32,0,.09-.04.19-.09.27-.07.11-.23.22-.36.23-.16.02-.3-.04-.43-.17l-1.25-1.25c-.17-.17-.27-.36-.31-.56,0-.03-.03-.08-.05-.13,0-.02-.02-.03-.02-.05-.11,0-.22-.04-.3-.11-.09-.07-.21-.2-.25-.43,0-.03-.01-.13-.01-.17,0-.28.1-.47.31-.56.05-.02.15-.06.28-.05-.27-.31-.54-.62-.82-.92.1.16.13.32.11.49,0,.02,0,.04-.01.06.02.07.03.15.02.23-.02.14-.13.33-.26.4-.17.09-.42.1-.62-.12l-.79-.78c-.1-.11-.2-.21-.31-.31-.25-.22-.36-.5-.43-.74l-.03-.14s-.02-.08-.03-.12c-.08-.2,0-.52.2-.64.15-.09.39-.12.61.08l.1.09c.09.09.19.17.27.26.22.23.45.46.68.68-.3-.33-.6-.65-.9-.98-1.2-1.28-2.31-2.4-3.4-3.42-.57-.54-1.15-1.06-1.72-1.57,0,0,0,0,0,.01.06.19.03.33-.03.43,0,0,0,0,0,0,.06.16.01.42-.11.54-.19.19-.49.2-.69.01-.07-.06-.14-.13-.21-.2l-1.52-1.48c-.17-.16-.28-.34-.36-.55-.03-.09-.08-.18-.12-.27l-.02-.04c-.33-.08-.52-.32-.52-.66,0-.1,0-.15,0-.2.01-.13.1-.28.21-.37-.39-.3-.8-.6-1.22-.89l-.19-.13Zm12.13,11.72l-.36.26s.05.05.09.07l.27-.33Zm-2.39-2.8s0,0,0,0c0,0,0,0,0,0Zm-8.1-6.82s0,0,0,0h0Z"/>
    <path class="cls-4" d="m3.92,15.22s.03.03.02.06c-.02-.02-.02-.03-.02-.06Z"/>
    <path class="cls-4" d="m33.31,29.35s.02-.04.05-.03c0,.02-.02.03-.05.03Z"/>
    <path class="cls-5" d="m7.02,18.55c-.03.19.04.35.14.5.13.21.32.36.5.53.22.2.44.41.65.63.13.15.28.28.43.42.03.03.07.05.08.1,0,.03,0,.05-.01.08-.02.02-.05.01-.07,0-.07-.06-.14-.12-.2-.19-.51-.49-1.01-.99-1.52-1.48-.11-.11-.2-.24-.26-.39-.06-.16-.14-.31-.22-.47-.04-.09-.12-.1-.2-.11-.14-.01-.21-.08-.21-.22,0-.05,0-.11,0-.16,0-.06.05-.08.09-.04.25.25.56.43.78.7.01.01.02.03.03.04,0,.03,0,.05,0,.08Z"/>
    <path class="cls-5" d="m18,29.86c0,.06.05.09.09.13.17.15.3.34.51.45.05.03.03.09,0,.13-.04.06-.08.01-.11-.01-.13-.13-.26-.27-.4-.4-.23-.23-.46-.46-.69-.69-.05-.05-.11-.11-.16-.16-.09-.09-.16-.2-.19-.33-.03-.15-.13-.28-.17-.44-.02-.09-.11-.12-.23-.1-.14.02-.21-.02-.24-.16,0-.02,0-.04,0-.06,0-.07-.01-.16.05-.19.08-.04.12.05.16.1.1.1.2.2.31.28.19.14.32.33.41.55,0,.02,0,.05.02.06.21.08.33.27.48.41.21.19.41.38.6.58.04.04.1.09.1.18-.11-.06-.19-.14-.27-.21-.26-.25-.54-.48-.77-.76-.02-.03-.06-.05-.1-.05,0-.02-.02-.05-.03-.07-.02,0-.04-.01-.07,0-.09.08-.1.08-.02.15.22.21.43.44.66.63Z"/>
    <path class="cls-5" d="m15.44,27.06c-.13-.1-.24-.2-.35-.31-.24-.23-.48-.45-.69-.7-.03-.03-.05-.07-.1-.08-.05-.01-.09,0-.12.03-.02.04-.02.07,0,.11.03.04.06.07.1.11.33.32.66.64.98.96.03.03.06.07.12.09.04,0,.07.03.06.08,0,.02,0,.05-.03.06-.05.02-.07-.02-.09-.04-.21-.2-.42-.41-.63-.61-.17-.17-.33-.34-.51-.5-.16-.14-.24-.33-.3-.53-.03-.1-.04-.2-.08-.3-.01-.03-.02-.07.01-.09.03-.02.06,0,.08.03.12.11.24.22.35.33.25.26.51.52.78.78.1.1.2.21.3.32.07.07.1.16.09.27Z"/>
    <path class="cls-5" d="m7.23,18.67c.13.06.22.17.32.27.38.36.75.72,1.13,1.09.07.06.12.14.15.23.01.04.03.09-.01.12-.05.04-.08,0-.11-.03-.12-.11-.24-.23-.36-.34-.05-.05-.1-.1-.15-.15-.04-.04-.07-.09-.06-.16-.06,0-.12,0-.16-.06,0,0-.02-.01-.02-.02-.23-.23-.46-.46-.69-.68-.05-.05-.07-.09-.06-.16.03-.03.03-.07.03-.11Z"/>
    <path class="cls-6" d="m18,29.86c-.24-.19-.44-.42-.66-.63-.07-.07-.07-.08.02-.15,0,.03,0,.04.03.04.03,0,.04-.01.03-.04,0,.02.02.05.03.07-.01.03-.01.05.01.07.14.15.29.29.44.44.06.06.13.1.1.2Z"/>
    <path class="cls-6" d="m7.23,18.67s0,.08-.03.11c-.07,0-.12-.02-.13-.1,0-.05,0-.1-.04-.13,0-.03,0-.05,0-.08.12.02.17.1.21.2Z"/>
    <path class="cls-4" d="m17.43,29.07s0,.04-.03.04c-.02,0-.04-.01-.03-.04.02-.01.05,0,.07,0Z"/>
    <path class="cls-6" d="m23.11,33.02c-.61,0-1.22-.14-1.84-.43-.57-.26-1.05-.64-1.47-1.16l-.47-.58c-.32-.4-.65-.81-.98-1.21-1.28-1.55-2.62-3.07-3.99-4.53-1.2-1.28-2.31-2.4-3.4-3.42-1.06-1-2.12-1.94-3.16-2.8-.84-.69-1.95-1.6-3.13-2.41l-.55-.38c-.16-.11-.28-.24-.38-.36-.04-.05-.08-.09-.13-.14-.04-.04-.07-.09-.1-.14,0-.02-.02-.04-.02-.06,0-.02-.02-.04-.02-.06-.1-.37-.02-.7.05-.92.15-.66.51-1.12,1.1-1.44.37-.2.75-.33,1.12-.45,1.1-.37,2.23-.71,3.35-1,1.51-.39,2.88-.67,4.19-.87.78-.11,1.58-.06,2.53.17.62.15,1.22.42,1.94.88,1.66,1.07,3.33,2.27,5.09,3.69,1.55,1.24,3.12,2.63,4.66,4.12,1.18,1.14,2.33,2.31,3.43,3.49.98,1.05,1.83,2.01,2.62,2.93.2.24.43.53.6.89.18.38.25.79.2,1.2l-.05.48c-.05.46-.26.84-.65,1.13-.02.02-.04.04-.07.06-.07.06-.15.09-.23.1-.27.11-.55.18-.83.25l-.25.06c-.23.06-.47.12-.71.18-.35.09-.71.18-1.05.28-1.03.31-2.07.65-3.1,1.03-.41.15-.82.31-1.23.48-.54.23-1.01.43-1.49.62-.4.16-.83.26-1.28.3-.11,0-.21.01-.32.01ZM4.34,15.05s.06.06.08.09c.08.09.15.17.21.21l.55.38c1.21.83,2.34,1.75,3.19,2.46,1.05.87,2.13,1.82,3.2,2.84,1.1,1.04,2.23,2.17,3.44,3.46,1.39,1.48,2.74,3.01,4.03,4.57.33.4.66.81.99,1.22l.47.58c.33.41.71.71,1.15.92.58.27,1.15.38,1.72.33.36-.03.7-.11,1.02-.24.47-.19.94-.39,1.41-.59.48-.21.91-.37,1.34-.53,1.05-.38,2.11-.73,3.15-1.04.36-.11.73-.2,1.09-.29.23-.06.46-.12.69-.18l.26-.07c.28-.07.54-.14.79-.24,0,0,0,0,0,0,0,0,.01,0,.02-.01.18-.14.28-.3.3-.51l.06-.49c.03-.25-.01-.49-.12-.73-.12-.26-.31-.5-.47-.69-.77-.92-1.62-1.87-2.59-2.9-1.09-1.17-2.23-2.33-3.39-3.46-1.52-1.47-3.07-2.84-4.6-4.07-1.74-1.4-3.38-2.59-5.02-3.64-.63-.4-1.15-.64-1.67-.77-.84-.2-1.53-.25-2.2-.15-1.28.19-2.62.46-4.1.85-1.1.29-2.2.61-3.28.98-.35.12-.68.23-.98.4-.36.2-.56.44-.64.78,0,.02-.03.12-.04.14-.05.17-.07.29-.06.39Z"/>
  </g>
  <path class="cls-6" d="m142.94,33.64h1.04c5.84-.24,10.41-5,10.41-10.85s-4.57-10.61-10.41-10.86h-1.03s0,0,0,0c-5.77.31-10.29,5.06-10.29,10.85s4.51,10.55,10.29,10.85Zm-6.56-3.83c.69-.5,1.44-.93,2.22-1.28.75,1.56,1.79,2.94,3.09,4.11-2.01-.37-3.87-1.36-5.32-2.83Zm6.72,2.9c-1.59-1.19-2.87-2.74-3.72-4.49,1.19-.43,2.44-.68,3.72-.74v5.23Zm0-6.07c-1.4.06-2.76.33-4.06.81-.5-1.23-.79-2.54-.87-3.89h4.93s0,3.08,0,3.08Zm0-3.92h-4.95c0-1.38.23-2.73.68-4.02,1.36.54,2.8.84,4.28.91v3.11Zm2.1,9.95c1.37-1.21,2.44-2.65,3.2-4.29.85.34,1.65.78,2.39,1.3-1.5,1.58-3.46,2.63-5.59,2.99Zm6.15-3.62c-.81-.58-1.69-1.06-2.62-1.44.5-1.29.79-2.65.87-4.05h3.92c-.15,2.01-.9,3.91-2.17,5.49Zm.31-12.1c1.22,1.69,1.87,3.68,1.88,5.77h-3.93c0-1.43-.24-2.83-.69-4.18.97-.42,1.89-.95,2.73-1.59Zm-.52-.66c-.78.59-1.62,1.08-2.5,1.47-.75-1.84-1.93-3.5-3.44-4.84,2.31.39,4.4,1.58,5.94,3.38Zm-7.2-3.33c1.75,1.35,3.1,3.1,3.92,5.11-1.26.45-2.58.69-3.92.72v-5.83Zm0,6.67c1.44-.03,2.85-.29,4.21-.77.41,1.25.62,2.55.63,3.87h-4.84s0-3.1,0-3.1Zm0,3.94h4.81c-.08,1.3-.35,2.56-.82,3.76-1.29-.43-2.63-.66-4-.69v-3.07Zm0,3.91c1.25.03,2.49.23,3.67.62-.83,1.76-2.09,3.32-3.67,4.53v-5.15Zm-.84-14.61v5.91c-1.37-.06-2.7-.35-3.97-.85.84-1.99,2.21-3.73,3.97-5.06Zm-1.41.07c-1.45,1.29-2.59,2.89-3.34,4.65-.83-.39-1.61-.88-2.33-1.45,1.49-1.68,3.48-2.8,5.67-3.21Zm-6.2,3.86c.79.62,1.65,1.16,2.56,1.58-.49,1.39-.74,2.86-.74,4.35h-3.81c.01-2.16.7-4.21,2-5.94Zm-1.97,6.78h3.81c.08,1.45.39,2.87.93,4.2-.87.38-1.69.86-2.45,1.42-1.34-1.61-2.12-3.54-2.28-5.62Z"/>
  <g>
    <path class="cls-1" d="m46.35,31.51c-.11.11-.26.18-.42.18-.16,0-.32-.06-.43-.17-2.37-2.32-3.67-5.42-3.67-8.73,0-3.26,1.27-6.33,3.58-8.64l.09-.09c.12-.11.27-.18.43-.17.16,0,.32.07.43.18.11.11.17.27.17.43s-.06.32-.18.43l-.09.09c-2.08,2.08-3.22,4.84-3.22,7.78,0,2.98,1.17,5.77,3.31,7.86.12.11.18.27.18.43,0,.17-.06.32-.17.43h0Z"/>
    <path class="cls-1" d="m49.66,29.15c-.23.23-.62.24-.86,0-1.74-1.69-2.69-3.95-2.69-6.37,0-2.37.92-4.6,2.6-6.27l.09-.09c.12-.11.27-.17.43-.17.16,0,.31.07.43.18.11.11.17.26.17.42,0,.16-.06.32-.18.43l-.09.09c-1.45,1.45-2.24,3.37-2.24,5.41,0,2.09.83,4.04,2.32,5.49.24.23.25.62.01.86h0Z"/>
  </g>
  <g>
    <path class="cls-2" d="m104.66,24.06c-.34-.34-.53-.8-.53-1.28,0-1,.81-1.81,1.81-1.81.48,0,.94.19,1.28.53s.53.8.53,1.28c0,1-.81,1.81-1.81,1.81-.48,0-.94-.19-1.28-.53Z"/>
    <path class="cls-2" d="m116.08,31.51c-.11-.11-.17-.27-.17-.43,0-.17.06-.32.18-.44,2.13-2.09,3.31-4.88,3.31-7.86,0-2.94-1.15-5.7-3.22-7.78l-.08-.08c-.12-.12-.18-.27-.18-.43,0-.17.06-.32.17-.43.11-.12.27-.18.43-.18.16,0,.32.06.43.17l.09.09c2.31,2.31,3.58,5.38,3.58,8.64,0,3.31-1.3,6.41-3.67,8.73-.12.11-.27.18-.43.17-.16,0-.31-.06-.42-.18h0Z"/>
    <path class="cls-2" d="m112.77,29.14c-.11-.11-.17-.26-.17-.42,0-.17.07-.32.18-.44,1.5-1.46,2.32-3.41,2.32-5.49,0-2.04-.8-3.97-2.24-5.41l-.08-.08c-.24-.24-.24-.62-.01-.86.23-.24.62-.25.86-.01l.09.09c1.68,1.68,2.6,3.9,2.6,6.27,0,2.42-.96,4.68-2.69,6.37-.24.23-.62.23-.85,0h0Z"/>
    <path class="cls-2" d="m109.11,26.97c-.11-.11-.17-.26-.17-.42,0-.17.07-.33.19-.44.92-.88,1.42-2.05,1.42-3.32,0-1.23-.48-2.38-1.34-3.24l-.08-.08c-.12-.12-.18-.27-.19-.43,0-.17.06-.32.17-.43.11-.12.26-.18.43-.19.16,0,.32.06.43.17l.1.1c1.1,1.1,1.7,2.55,1.7,4.1,0,1.6-.64,3.09-1.8,4.2-.12.11-.27.17-.44.17-.16,0-.31-.07-.42-.18h0Z"/>
  </g>
  <g>
    <path class="cls-3" d="m62.28,28.74c-.1,0-.21-.04-.29-.12l-11.09-11.09c-.16-.16-.16-.42,0-.58.16-.16.42-.16.58,0l11.09,11.09c.16.16.16.42,0,.58-.08.08-.18.12-.29.12Z"/>
    <path class="cls-3" d="m51.19,28.74c-.1,0-.21-.04-.29-.12-.16-.16-.16-.42,0-.58l11.09-11.09c.16-.16.42-.16.58,0,.16.16.16.42,0,.58l-11.09,11.09c-.08.08-.18.12-.29.12Z"/>
    <path class="cls-1" d="m52.53,25.08c-.41-.69-.64-1.47-.64-2.3,0-.82.23-1.61.64-2.3l-.9-.9c-.62.94-.96,2.04-.96,3.2,0,1.16.34,2.26.96,3.2l.9-.9Z"/>
  </g>
</svg>