<?xml version="1.0" encoding="utf-8"?>
<!-- Generator: Adobe Illustrator 27.9.0, SVG Export Plug-In . SVG Version: 6.00 Build 0)  -->
<svg version="1.1" id="Layer_1" xmlns="http://www.w3.org/2000/svg" xmlns:xlink="http://www.w3.org/1999/xlink" x="0px" y="0px"
	 viewBox="0 0 1024 1024" style="enable-background:new 0 0 1024 1024;" xml:space="preserve">
<style type="text/css">
	.st0{fill:#C3C3CF;}
</style>
<path class="st0" d="M905.1,494.1c16.4,16.4,25.3,37.3,25.3,59.6s-8.9,41.7-25.3,58.1L614.3,905.6c-16.4,16.4-37.3,23.9-59.6,23.9
	c-22.4,0-41.7-7.5-58.1-23.9L119.3,529.9C102.9,513.5,94,492.6,94,471.7V176.5c0-22.4,7.5-41.7,23.9-58.1
	c17.9-14.9,37.3-23.9,61.1-23.9h292.2c23.9,0,43.2,7.5,58.1,23.9L905.1,494.1z M196.9,285.4c11.9,11.9,26.8,17.9,44.7,17.9
	s32.8-6,44.7-17.9c11.9-11.9,17.9-26.8,17.9-44.7s-6-32.8-17.9-44.7S259.5,178,241.6,178s-32.8,6-44.7,17.9
	c-11.9,11.9-17.9,26.8-17.9,44.7S184.9,273.5,196.9,285.4z"/>
</svg>
