<?xml version="1.0" encoding="UTF-8"?>
<svg id="Layer_1" data-name="Layer 1" xmlns="http://www.w3.org/2000/svg" viewBox="0 0 100 100">
  <defs>
    <style>
      .cls-1 {
        fill: #fcc624;
      }

      .cls-1, .cls-2, .cls-3 {
        stroke-width: 0px;
      }

      .cls-2 {
        fill: #fff;
      }

      .cls-3 {
        fill: #231f20;
      }
    </style>
  </defs>
  <path class="cls-2" d="m66.91,94.68c-2.35,0-4.34-1.19-5.5-3.27l.02-.1-.21-.29c-.16-.31-.27-.6-.34-.9l-.2-.81-.83.05c-.3.02-.61.02-.91.02-1.6,0-3.1-.22-4.54-.43-1.28-.18-2.48-.36-3.62-.36-.26,0-.52,0-.78.03-2.13.12-3.83.44-5.32.73-1.22.24-2.28.44-3.23.45h-.64s-.27.59-.27.59c-.7,1.54-2.1,2.62-3.93,3.04-.65.15-1.35.22-2.08.22-2.16,0-4.56-.63-6.94-1.83l-.28-.15c-2.42-1.29-5.25-1.6-7.74-1.89-1.12-.13-2.18-.25-3.12-.44-1.58-.33-2.47-.85-2.9-1.67-.53-1.03-.39-2.57.45-4.86.37-1.15.15-2.55-.08-4.04l-.02-.16c-.23-1.48-.36-2.7.18-3.7l.12-.22c.59-1,1.49-1.48,2.64-1.9l.49-.17c1.08-.37,2.09-.73,2.91-1.54.46-.48.84-1.01,1.26-1.58.41-.56.83-1.14,1.31-1.65.11-.12.22-.24.35-.35l.4-.36-.08-.53c-.41-2.68-.05-5.73,1.06-9.05,2.3-6.92,7.37-13.57,10.19-16.92,3.14-4.46,3.95-7.94,4.24-12.11.04-1.01-.04-2.26-.13-3.71-.48-7.33-1.21-18.4,11.3-19.41.59-.05,1.18-.07,1.75-.07,3.65,0,6.41,1,8.43,3.05,4.32,4.38,4.2,12.8,4.12,18.37v1c-.07,5.62,3,9.49,5.96,13.23l.18.23c3.93,4.65,6.59,8.9,8.15,13.02,1.82,4.81,2.04,9.33.66,13.43l-.31.91.9.34c.4.15.77.38,1.14.7l.17.15c.84.83,1.14,2.15,1.41,3.32.32,1.4.62,2.71,1.26,3.63v.04l.26.29c1.76,1.95,2.55,3.39,2.48,4.54-.05.89-.67,1.65-2,2.46-.75.45-1.63.88-2.56,1.33-2.31,1.12-4.94,2.4-6.77,4.63l.55-.05-.5.6-.05-.55c-2.29,2.72-5.17,4.41-7.92,4.62-.19.01-.38.02-.56.02Z"/>
  <g>
    <g>
      <path class="cls-1" d="m66.77,66.53c-.06.03-.12.06-.18.09-1.27.69-1.98,1.93-2.44,3.76-.46,1.83-.61,4.19-.74,6.9h0c-.13,2.12-1.09,4.71-1.77,7.25-.67,2.53-1.01,4.94-.21,6.46h0v.02c1.29,2.59,3.47,3.64,6.01,3.44,2.54-.2,5.42-1.75,7.78-4.56,2.72-3.29,6.98-4.55,9.38-6,1.2-.72,1.86-1.39,1.91-2.29.05-.9-.56-2.31-2.44-4.39h0c-.98-1.11-1.24-2.65-1.56-4.07-.33-1.42-.7-2.68-1.49-3.35h0c-1.03-.9-2.03-.98-3.23-.95-.26,0-.53.02-.8.03-1.37,1.57-4.6,3.5-6.85,2.91-2.05-.52-3.22-2.91-3.37-5.26h0Z"/>
      <path class="cls-1" d="m25.51,66.7c-1.08,0-1.8.52-2.52,1.28-.85.91-1.58,2.19-2.55,3.21h0s0,0,0,0c-1.05,1.05-2.37,1.37-3.49,1.77-1.12.4-2.02.83-2.63,2.01h0c-.48.9-.36,2.18-.15,3.58.22,1.41.54,2.9.09,4.27h0v.03c-.9,2.45-.9,3.88-.47,4.7.42.82,1.34,1.26,2.75,1.55,2.82.59,7.21.4,10.91,2.35,3.34,1.75,6.68,2.31,9.15,1.75,2.47-.56,4.07-2.11,4.29-4.96h0v-.02c.17-1.67-1.12-3.86-2.78-6.03-1.66-2.17-3.61-4.3-4.54-6.23h0c-1.16-2.49-2.29-4.73-3.5-6.36-1.21-1.64-2.45-2.64-3.89-2.86-.21-.03-.42-.06-.6-.06h-.04,0Z"/>
      <path class="cls-1" d="m47.75,24.26c-.66,0-1.25.12-1.78.31-1.54.53-2.56,1.64-3.2,2.24-.12.12-.29.23-.68.52-.39.29-.99.72-1.84,1.36-.76.57-1.01,1.31-.74,2.18.26.87,1.11,1.86,2.63,2.73h0c.95.57,1.59,1.31,2.34,1.91.74.6,1.57,1.06,2.94,1.14,1.62.09,2.8-.39,3.85-.99,1.05-.6,1.95-1.33,2.97-1.67h0c2.09-.66,3.59-1.98,4.06-3.23.23-.63.23-1.22-.05-1.77-.28-.55-.86-1.07-1.83-1.47-2.02-.87-2.91-.93-4.04-1.67-1.84-1.18-3.35-1.6-4.62-1.59h0s0,0,0,0Z"/>
    </g>
    <g id="g3363">
      <path id="path4846" class="cls-3" d="m51.91,4.32c14.43.02,13.63,15.24,13.54,23.44-.06,5.37,2.91,9,5.95,12.83,2.71,3.21,6.26,7.91,8.3,13.29,1.66,4.38,2.31,9.23.67,14.11.49.19.97.47,1.44.88,0,0,0,0,0,0,1.18,1.01,1.56,2.56,1.89,4,.33,1.44.64,2.79,1.28,3.52h0c1.97,2.19,2.82,3.82,2.74,5.28-.08,1.46-1.16,2.46-2.48,3.26-2.66,1.6-6.67,2.82-9.08,5.74l-.47-.38.47.39c-2.53,3.01-5.66,4.75-8.61,4.98-2.94.23-5.71-1.12-7.19-4.09,0,0,0-.01,0-.02-.2-.38-.36-.78-.46-1.19-3.83.21-7.16-.95-9.83-.74-3.93.22-6.39,1.17-8.63,1.18-.86,1.9-2.54,3.13-4.62,3.6-2.86.65-6.45,0-9.98-1.84h0c-3.3-1.76-7.49-1.6-10.59-2.24-1.55-.32-2.92-.9-3.58-2.2-.66-1.29-.54-3.08.4-5.66.3-.92.07-2.27-.15-3.7-.22-1.43-.43-2.98.29-4.33h0c.79-1.53,2.11-2.16,3.3-2.59,1.19-.43,2.27-.72,3.03-1.48.81-.86,1.55-2.14,2.54-3.2.13-.14.26-.28.41-.41-.47-3.08.04-6.33,1.1-9.52,2.25-6.75,7-13.24,10.37-17.25,2.87-4.08,3.72-7.37,4.01-11.54.24-5.71-4.04-22.74,12.09-24.04.64-.05,1.25-.07,1.83-.07h0Zm1.92,12.64c-.84,0-1.53.26-2.25.81-.72.55-1.23,1.22-1.65,2.15-.41.93-.59,1.85-.58,2.92v.08c0,.3.03.59.07.87.65.15,1.33.41,2.07.77-.05-.29-.07-.59-.07-.91,0-.02,0-.04,0-.07.02-.59.12-1.1.33-1.6.21-.5.46-.86.8-1.14.32-.27.63-.39.99-.39.02,0,.04,0,.06,0,.38.01.7.16,1.01.47.32.31.54.68.72,1.2.16.49.24.98.23,1.54,0,.03,0,.04,0,.07-.02.59-.13,1.08-.33,1.59-.14.34-.3.6-.48.83.52.18,1.14.41,1.95.75.12.05.24.1.34.15.32-.39.59-.83.82-1.37.41-.93.59-1.85.59-2.92,0-.03,0-.06,0-.08-.02-1.05-.22-1.93-.63-2.83-.42-.93-.95-1.59-1.68-2.12-.72-.52-1.41-.76-2.23-.76h-.05,0Zm-11.31.89c-.6.03-1.1.28-1.59.77-.49.49-.83,1.08-1.09,1.91-.26.82-.36,1.62-.31,2.55h0c.05.94.24,1.72.59,2.5.29.66.63,1.16,1.06,1.56.2-.14.36-.27.5-.37.22-.16.34-.26.61-.47-.04-.03-.09-.06-.13-.1-.26-.22-.45-.51-.62-.92-.17-.4-.27-.79-.32-1.26v-.06c-.04-.49-.02-.91.08-1.34.1-.43.24-.76.46-1.02.22-.26.45-.4.73-.42.03,0,.05,0,.07,0,.24,0,.46.09.7.29.26.22.46.51.63.92.16.4.27.79.32,1.26,0,.02,0,.04,0,.06.03.35.03.67-.02.98.45-.3.97-.56,1.55-.76.1-.04.21-.07.32-.1.03-.35.03-.73,0-1.12-.05-.93-.23-1.71-.58-2.49-.35-.78-.77-1.34-1.31-1.78-.5-.4-.98-.59-1.53-.59-.05,0-.09,0-.14,0h0Zm5.23,6.41c-.66,0-1.25.12-1.78.31-1.54.53-2.56,1.64-3.2,2.24-.12.12-.29.23-.68.52-.39.29-.99.72-1.84,1.36-.76.57-1.01,1.31-.74,2.18.26.87,1.11,1.86,2.63,2.73h0c.95.57,1.59,1.31,2.34,1.91.74.6,1.57,1.06,2.94,1.14,1.62.09,2.8-.39,3.85-.99,1.05-.6,1.95-1.33,2.97-1.67h0c2.09-.66,3.59-1.98,4.06-3.23.23-.63.23-1.22-.05-1.77-.28-.55-.86-1.07-1.83-1.47-2.02-.87-2.91-.93-4.04-1.67-1.84-1.18-3.35-1.6-4.62-1.59h0s0,0,0,0Zm8.84,5.24l.04.68c-.31.02-.85.25-1.49.6-.64.36-1.39.83-2.21,1.3-1.65.95-3.6,1.92-5.68,1.92s-3.7-.95-4.88-1.88c-.59-.47-1.07-.93-1.43-1.27-.18-.17-.33-.31-.44-.39-.07-.05-.13-.07-.14-.07,0,0,0,0,.03-.18l.02-.52c.25,0,.36.11.51.22.15.11.31.27.49.44.37.34.83.79,1.39,1.23,1.11.88,2.59,1.74,4.45,1.74s3.71-.9,5.33-1.83c.81-.47,1.56-.94,2.22-1.31.66-.37,1.24-.65,1.79-.68h0Zm1.84,2.48c-.8,1.14-2.21,2.12-3.98,2.67-.84.27-1.72.98-2.83,1.61-1.11.63-2.47,1.19-4.24,1.09-1.52-.09-2.53-.66-3.33-1.3-.8-.65-1.43-1.36-2.25-1.84-.28-.16-.91-.59-1.1-.73-.36,6.75-4.86,15.22-7.02,20.11-1.48,3.52-2.37,7.28-2.48,10.97-3.89-5.18-1.04-11.83.47-14.71,1.69-3.15,1.96-4.01,1.54-3.7-1.53,2.49-3.92,6.47-4.85,10.55-.49,2.13-.58,4.29.05,6.28.63,1.99,1.98,3.83,4.39,5.33,3.28,2.01,5.5,4.02,6.82,5.81,1.32,1.78,1.73,3.34,1.32,4.45-.21.55-.62.98-1.21,1.25-.48.22-1.07.33-1.76.33.35.44.71.89,1.05,1.34.54.71,1.06,1.43,1.52,2.15,6.75,4.61,14.7,2.84,20.42-1.25.57-1.96,1.13-3.81,1.22-5.17.14-2.71.28-5.13.78-7.13.5-2,1.39-3.62,3.03-4.52.26-.14.52-.26.78-.35.02-.17.04-.34.07-.5.47-3.12,3.26-3.27,6.76-1.73,3.37,1.53,4.64,2.86,4.07,4.66.02,0,.04,0,.07,0,.22,0,.45,0,.68,0,.7-2.28-.76-3.95-4.7-5.87-.26-.13-.52-.24-.78-.34.53-2.14.42-4.3-.07-6.36-1.08-4.52-4.04-8.53-6.29-10.52-.42-.02-.37.35.47,1.16,2.08,1.91,6.62,8.77,4.16,15.14-.7-.18-1.36-.27-1.95-.25-.94-5.19-3.11-9.5-4.21-11.53-2.06-3.82-5.25-11.65-6.63-17.07h0Zm11.24,31.04c-1.08,0-1.83.57-1.98,1.87-.29,1.92.57,4.46,2.34,4.91,1.73.47,4.25-1.32,4.84-2.44.7-1.49-.1-2.5-2.66-3.68-.95-.43-1.81-.66-2.53-.66h0Zm-2.9,3.51c-.06.03-.12.06-.18.09-1.27.69-1.98,1.93-2.44,3.76-.46,1.83-.61,4.19-.74,6.9h0c-.13,2.12-1.09,4.71-1.77,7.25-.67,2.53-1.01,4.94-.21,6.46h0v.02c1.29,2.59,3.47,3.64,6.01,3.44,2.54-.2,5.42-1.75,7.78-4.56,2.72-3.29,6.98-4.55,9.38-6,1.2-.72,1.86-1.39,1.91-2.29.05-.9-.56-2.31-2.44-4.39h0c-.98-1.11-1.24-2.65-1.56-4.07-.33-1.42-.7-2.68-1.49-3.35h0c-1.03-.9-2.03-.98-3.23-.95-.26,0-.53.02-.8.03-1.37,1.57-4.6,3.5-6.85,2.91-2.05-.52-3.22-2.91-3.37-5.26h0Zm-41.27.18c-1.08,0-1.8.52-2.52,1.28-.85.91-1.58,2.19-2.55,3.21h0s0,0,0,0c-1.05,1.05-2.37,1.37-3.49,1.77-1.12.4-2.02.83-2.63,2.01h0c-.48.9-.36,2.18-.15,3.58.22,1.41.54,2.9.09,4.27h0v.03c-.9,2.45-.9,3.88-.47,4.7.42.82,1.34,1.26,2.75,1.55,2.82.59,7.21.4,10.91,2.35,3.34,1.75,6.68,2.31,9.15,1.75,2.47-.56,4.07-2.11,4.29-4.96h0v-.02c.17-1.67-1.12-3.86-2.78-6.03-1.66-2.17-3.61-4.3-4.54-6.23h0c-1.16-2.49-2.29-4.73-3.5-6.36-1.21-1.64-2.45-2.64-3.89-2.86-.21-.03-.42-.06-.6-.06h-.04,0Z"/>
    </g>
  </g>
</svg>