<?xml version="1.0" encoding="UTF-8"?>
<svg id="Layer_1" data-name="Layer 1" xmlns="http://www.w3.org/2000/svg" viewBox="0 0 100 100">
  <defs>
    <style>
      .cls-1 {
        fill: #47ae4a;
      }

      .cls-1, .cls-2, .cls-3 {
        stroke-width: 0px;
      }

      .cls-2 {
        fill: #cc2455;
      }
    </style>
  </defs>
  <path class="cls-3" d="m86.68,57.1c-.23-4.01-2.11-7.74-5.18-10.32-.47-1.71-1.29-3.3-2.4-4.68-.36-3.76-2.2-7.23-5.1-9.64.47-.41.87-.89,1.18-1.44,3.03-1.26,5.27-3.88,6.06-7.06,1.7-1.59,2.75-3.75,2.93-6.08.05-.94-.13-1.88-.52-2.73,1.44-1.38,1.97-3.47,1.35-5.37-1.01-2.93-4.56-4.83-9.32-5.04-1.44-1.23-3.3-1.86-5.19-1.78-.94,0-1.88.12-2.8.35-.87-.39-1.81-.58-2.75-.56-1.85.02-3.65.51-5.25,1.43-.21-.03-.42-.04-.63-.04-2.2.22-4.28,1.13-5.93,2.6-1.17.95-2.22,2.04-3.11,3.24-.9-1.21-1.95-2.3-3.12-3.24-1.65-1.47-3.73-2.38-5.93-2.6-.21,0-.42.01-.63.04-1.6-.92-3.41-1.41-5.25-1.43-.95-.02-1.89.17-2.75.56-.92-.23-1.86-.34-2.8-.35-1.89-.08-3.75.55-5.19,1.78-4.76.2-8.31,2.1-9.32,5.04-.62,1.9-.09,3.99,1.36,5.36-.39.86-.57,1.8-.52,2.74.18,2.32,1.22,4.49,2.93,6.08.79,3.18,3.03,5.8,6.06,7.06.31.54.71,1.03,1.18,1.44-2.9,2.42-4.74,5.88-5.1,9.64-1.12,1.38-1.93,2.97-2.4,4.68-3.07,2.58-4.95,6.31-5.18,10.32-.54,3.95.63,7.94,3.2,10.98.43,2.19,1.34,4.25,2.64,6.06.29,3.42,1.69,6.65,3.98,9.2,2.29,2.64,5.37,4.46,8.78,5.22,2.03,1.89,4.42,3.37,7.02,4.35,6.24,5.76,15.86,5.76,22.1,0,2.6-.98,4.99-2.45,7.02-4.35,3.41-.75,6.49-2.58,8.78-5.22,2.29-2.55,3.69-5.78,3.98-9.2,1.3-1.81,2.21-3.88,2.64-6.06,2.58-3.04,3.74-7.03,3.2-10.98h0Z"/>
  <path class="cls-1" d="m58.9,9.11c.2-.06.41.06.46.26.01.05.02.1.01.14-.12,1.12.56.98.72.78,1.19-1.74,3.22-2.72,5.32-2.55.21.02.36.21.34.41,0,.07-.03.14-.08.19-.67.99.05,1.18.32,1,2.72-1.7,5.32-1.71,6.32-.99.17.12.2.36.07.53-.02.02-.03.04-.05.06-1.01.86-.44,1.29-.09,1.16,2.66-.81,5.54-.45,7.91,1.01.16.13.18.37.05.53-.01.01-.02.03-.04.04-1.6,1.22-2.64,3.04-2.89,5.04-.08.66,1.02.52,1.49.4.2-.05.41.07.46.27,0,.03.01.05.01.08.04,1.59-1.46,3.34-3.7,4.84-.3.2-.26.68.43.7.2,0,.37.17.37.37,0,.07-.02.13-.05.19-.8,1.48-1.89,2.88-5.58,3.84-.2.05-.32.26-.27.46.03.11.11.21.22.25.19.05.31.25.25.45-.02.08-.07.15-.13.2-3.68,3.16-13.02,1.92-14.2-3.41-.02-.11,0-.22.07-.3,3.96-5.29,9.32-9.37,15.48-11.78.15-.05.24-.22.18-.37-.05-.14-.19-.22-.33-.19-6.74.98-12.8,4.63-16.81,10.14-.11.15-.32.2-.48.11-5.98-3.09-1.07-12.21,4.24-13.83Zm-35.19,14.45c-.1-.18-.04-.4.13-.51.06-.03.12-.05.19-.05.68-.02.73-.5.43-.7-2.24-1.5-3.74-3.24-3.7-4.84,0-.21.18-.37.39-.36.03,0,.05,0,.08.01.46.12,1.56.26,1.49-.4-.25-2-1.29-3.81-2.89-5.04-.16-.14-.17-.38-.03-.53.01-.01.03-.03.04-.04,2.37-1.46,5.25-1.83,7.91-1.01.36.13.92-.3-.09-1.16-.16-.14-.17-.37-.04-.53.02-.02.04-.04.06-.05,1-.71,3.59-.71,6.32.99.27.18.98-.01.32-1-.13-.16-.1-.4.06-.53.06-.04.12-.07.19-.08,2.1-.16,4.13.81,5.32,2.55.16.2.84.34.72-.78-.02-.21.13-.39.34-.41.05,0,.1,0,.14.01,5.3,1.62,10.22,10.74,4.23,13.83-.17.09-.37.04-.48-.11-4.01-5.5-10.07-9.16-16.81-10.14-.16-.03-.31.07-.34.23-.03.14.06.29.2.33,6.16,2.41,11.52,6.49,15.48,11.78.07.09.09.2.07.31-1.19,5.32-10.52,6.57-14.2,3.41-.16-.12-.2-.35-.08-.51.05-.07.12-.11.2-.13.19-.08.28-.3.2-.5-.05-.11-.14-.19-.25-.22-3.7-.96-4.79-2.35-5.58-3.84h0Z"/>
  <path class="cls-2" d="m73.58,39.84c1.54,4.08.34,6.05-3.3,3.97-2.94-1.62-5.53-3.8-7.64-6.41-2.74-3.26-.96-4.71,3.36-3.93,3.35.89,6.13,3.22,7.59,6.37Zm-16.33-4.59c5.21,4.33-.76,7.39-7.25,7.39s-12.46-3.06-7.25-7.39c4.23-3.4,10.26-3.4,14.5,0Zm-30.83,4.59c1.46-3.14,4.24-5.48,7.59-6.37,4.32-.78,6.1.67,3.36,3.93-2.11,2.61-4.71,4.78-7.64,6.41-3.64,2.08-4.84.12-3.3-3.97Zm-7.53,22.68c-1.21-3.27-.89-6.91.86-9.92,1.92-3.27,3.86-3.14,4.63-.37.98,3.82.62,7.86-1,11.46-1.43,2.83-3.21,1.87-4.49-1.17Zm13.87,21.2c-4.82-1.22-8.33-5.38-8.72-10.34.72-16.8,24.94,13.2,8.72,10.34Zm.49-20.93c-4.06-2.34-5.14-8.09-2.4-12.82,2.74-4.74,8.25-6.68,12.3-4.33,4.06,2.34,5.14,8.09,2.4,12.82-2.74,4.74-8.25,6.68-12.3,4.33Zm23.52,27.34c-4.05,2.91-9.5,2.91-13.55,0-4.02-2.78.03-5.98,6.78-5.98s10.8,3.2,6.78,5.98h0Z"/>
  <ellipse class="cls-2" cx="50" cy="71.87" rx="9.43" ry="8.08"/>
  <path class="cls-2" d="m54.44,58.46c-2.74-4.74-1.66-10.48,2.4-12.82,4.06-2.35,9.57-.41,12.3,4.33,2.74,4.74,1.66,10.48-2.4,12.82-4.06,2.35-9.57.41-12.3-4.33Zm12.8,25.26c-16.22,2.86,7.99-27.14,8.71-10.34-.38,4.96-3.89,9.12-8.71,10.34h0Zm13.87-21.2c-1.29,3.05-3.07,4-4.49,1.17-1.62-3.6-1.98-7.64-1-11.46.77-2.77,2.7-2.9,4.63.37,1.76,3.01,2.07,6.65.86,9.92h0Z"/>
</svg>