<?xml version="1.0" encoding="UTF-8"?>
<svg id="Layer_1" data-name="Layer 1" xmlns="http://www.w3.org/2000/svg" viewBox="0 0 517.24 95.15">
  <defs>
    <style>
      .cls-1 {
        fill: #59595b;
      }

      .cls-1, .cls-2, .cls-3, .cls-4, .cls-5, .cls-6, .cls-7, .cls-8, .cls-9, .cls-10 {
        stroke-width: 0px;
      }

      .cls-2 {
        fill: #2b1315;
      }

      .cls-3 {
        fill: #221e20;
      }

      .cls-4 {
        fill: #630f16;
      }

      .cls-5 {
        fill: #d1d2d4;
      }

      .cls-6 {
        fill: #e7282d;
      }

      .cls-7 {
        fill: #221f1f;
      }

      .cls-8 {
        fill: #808284;
      }

      .cls-9 {
        fill: #982224;
      }

      .cls-10 {
        fill: #a7a8ab;
      }
    </style>
  </defs>
  <g>
    <path class="cls-3" d="m164.67,91.01c-6.64,0-11.9-1.52-16.32-5.81l3.87-3.87c3.18,3.32,7.47,4.7,12.31,4.7,6.5,0,10.51-2.35,10.51-7.19,0-3.46-2.08-5.53-6.64-5.95l-6.5-.55c-7.75-.69-11.9-4.15-11.9-10.79,0-7.33,6.09-11.76,14.66-11.76,5.67,0,10.79,1.38,14.25,4.29l-3.74,3.87c-2.77-2.21-6.5-3.18-10.51-3.18-5.81,0-8.85,2.49-8.85,6.64,0,3.46,1.94,5.53,6.92,5.95l6.36.55c6.92.69,11.76,3.32,11.76,10.93s-6.64,12.17-16.19,12.17Z"/>
    <path class="cls-3" d="m192.47,71.92c0,8.85,4.15,13.97,11.76,13.97,4.57,0,7.19-1.38,10.38-4.57l4.01,3.46c-4.01,4.15-7.75,6.23-14.53,6.23-10.51,0-17.29-6.36-17.29-20.61,0-13,6.23-20.61,16.32-20.61s16.32,7.61,16.32,19.51v2.77h-26.98v-.14Zm19.78-11.21c-1.52-3.74-5.12-6.09-9.27-6.09s-7.75,2.35-9.27,6.09c-.83,2.21-1.11,3.46-1.24,6.78h21.03c-.28-3.32-.41-4.57-1.25-6.78Z"/>
    <path class="cls-3" d="m249.47,57.81c-2.21-2.21-3.74-2.91-6.92-2.91-5.81,0-9.55,4.7-9.55,10.79v24.76h-5.81v-40.26h5.81v4.98c2.21-3.32,6.5-5.4,11.07-5.4,3.74,0,6.64.97,9.55,3.74l-4.15,4.29Z"/>
    <path class="cls-3" d="m275.34,90.46h-5.12l-14.53-40.26h6.23l10.79,32.37,10.93-32.37h6.23l-14.53,40.26Z"/>
    <path class="cls-3" d="m297.75,71.92c0,8.85,4.15,13.97,11.76,13.97,4.57,0,7.19-1.38,10.38-4.57l4.01,3.46c-4.01,4.15-7.75,6.23-14.53,6.23-10.51,0-17.29-6.36-17.29-20.61,0-13,6.23-20.61,16.32-20.61s16.32,7.61,16.32,19.51v2.77h-26.98v-.14Zm19.78-11.21c-1.52-3.74-5.12-6.09-9.27-6.09s-7.75,2.35-9.27,6.09c-.83,2.21-1.11,3.46-1.25,6.78h21.03c-.14-3.32-.41-4.57-1.25-6.78Z"/>
    <path class="cls-3" d="m354.75,57.81c-2.21-2.21-3.74-2.91-6.92-2.91-5.81,0-9.55,4.7-9.55,10.79v24.76h-5.81v-40.26h5.81v4.98c2.21-3.32,6.5-5.4,11.07-5.4,3.74,0,6.64.97,9.55,3.74l-4.15,4.29Z"/>
    <path class="cls-3" d="m378.96,57.12v33.34h-10.51v-33.34h-4.29v-8.16h4.29v-5.4c0-6.09,3.74-12.17,12.31-12.17h5.95v8.99h-4.15c-2.49,0-3.6,1.38-3.6,3.87v4.7h7.75v8.16h-7.75Z"/>
    <path class="cls-3" d="m413.54,90.46v-3.74c-2.77,2.91-5.53,4.15-10.38,4.15s-8.16-1.24-10.79-3.74c-2.21-2.35-3.46-5.81-3.46-9.55,0-6.78,4.57-12.31,14.39-12.31h9.96v-2.08c0-4.7-2.21-6.78-7.89-6.78-4.01,0-5.95.97-8.02,3.46l-6.64-6.64c4.15-4.57,8.16-5.95,15.22-5.95,11.76,0,17.85,5.12,17.85,15.08v28.08h-10.24Zm-.28-17.98h-8.3c-3.74,0-5.95,1.8-5.95,4.84s1.94,4.98,6.09,4.98c2.91,0,4.7-.28,6.64-2.08,1.11-1.11,1.52-2.77,1.52-5.4v-2.35Z"/>
    <path class="cls-3" d="m455.46,90.46v-3.87c-2.77,2.91-6.64,4.43-10.51,4.43-4.15,0-7.61-1.38-9.96-3.74-3.32-3.46-4.29-7.47-4.29-12.17v-27.25h10.51v25.87c0,5.81,3.6,7.75,6.92,7.75s7.06-1.94,7.06-7.75v-25.87h10.51v42.61h-10.24Z"/>
    <path class="cls-3" d="m485.62,90.46c-8.58,0-12.31-6.09-12.31-12.17v-46.21h10.51v45.51c0,2.49,1.11,3.87,3.74,3.87h4.01v8.99h-5.95Z"/>
    <path class="cls-3" d="m508.86,90.46c-8.58,0-12.17-6.09-12.17-12.17v-21.17h-4.43v-8.16h4.43v-12.59h10.51v12.59h7.47v8.16h-7.47v20.47c0,2.49,1.11,3.87,3.6,3.87h3.74v8.99h-5.67Z"/>
  </g>
  <g>
    <rect class="cls-10" x="2.67" y="22.4" width="60.32" height="12.04"/>
    <rect class="cls-8" x="2.67" y="41.9" width="60.32" height="12.04"/>
    <rect class="cls-1" x="2.67" y="59.89" width="60.32" height="12.04"/>
    <rect class="cls-5" x="2.67" y="3.17" width="60.32" height="12.04"/>
    <rect class="cls-7" x="2.67" y="79.39" width="60.32" height="12.04"/>
  </g>
  <rect class="cls-9" x="70.18" y="22.4" width="25.73" height="12.04"/>
  <rect class="cls-4" x="70.18" y="41.9" width="25.73" height="12.04"/>
  <rect class="cls-2" x="70.18" y="59.89" width="25.73" height="12.04"/>
  <rect class="cls-6" x="70.18" y="3.17" width="25.73" height="12.04"/>
  <rect class="cls-7" x="70.18" y="79.39" width="25.73" height="12.04"/>
  <g>
    <rect class="cls-10" x="102.83" y="22.95" width="25.73" height="12.04"/>
    <rect class="cls-8" x="102.83" y="42.46" width="25.73" height="12.04"/>
    <rect class="cls-1" x="102.83" y="60.44" width="25.73" height="12.04"/>
    <rect class="cls-5" x="102.83" y="3.72" width="25.73" height="12.04"/>
    <rect class="cls-7" x="102.83" y="79.95" width="25.73" height="12.04"/>
  </g>
</svg>