<?xml version="1.0" encoding="utf-8"?>
<!-- Generator: Adobe Illustrator 27.9.0, SVG Export Plug-In . SVG Version: 6.00 Build 0)  -->
<svg version="1.1" id="Layer_1" xmlns="http://www.w3.org/2000/svg" xmlns:xlink="http://www.w3.org/1999/xlink" x="0px" y="0px"
	 viewBox="0 0 1024 1024" style="enable-background:new 0 0 1024 1024;" xml:space="preserve">
<style type="text/css">
	.st0{fill:#C3C3CF;}
</style>
<path class="st0" d="M779.1,323.1l50-57.2l-57.2-50l-50,53.6c-47-35-104-59.1-166-67.6l-1.9-0.2v-32.2h89.3V98H389.7v71.4H479v35.7
	c-185.2,16.9-329.2,171.5-329.2,359.7c0,199.4,161.7,361.1,361.1,361.1S872,764.2,872,564.8c0-93.1-35.3-178.1-93.2-242.1
	L779.1,323.1L779.1,323.1z M514.8,833.8c-151.9,0-275-123.1-275-275s123.1-275,275-275c76.8,0.6,146.1,31.9,196.5,82.2
	c50.7,49.9,82.1,119.3,82.1,196v0.4v0c-6,150-128,269.5-278.4,271.5L514.8,833.8L514.8,833.8z"/>
<path class="st0" d="M479.1,348.1h75v275h-75V348.1z"/>
</svg>
