<?xml version="1.0" encoding="utf-8"?>
<!-- Generator: Adobe Illustrator 27.9.0, SVG Export Plug-In . SVG Version: 6.00 Build 0)  -->
<svg version="1.1" id="Layer_1" xmlns="http://www.w3.org/2000/svg" xmlns:xlink="http://www.w3.org/1999/xlink" x="0px" y="0px"
	 viewBox="0 0 1024 1024" style="enable-background:new 0 0 1024 1024;" xml:space="preserve">
<style type="text/css">
	.st0{fill:#05ADEE;}
</style>
<g>
	<path class="st0" d="M474.3,29.7V108c291.1-24.1,116.4,329.3,196.8,381.5c160.6,102.4-8,110.4-18.1,166.6
		c-14.1,188.7,68.3,305.2-182.7,265v70.3c0,0,214.8,18,267-36.2c78.3-78.3,26.1-208.8,52.2-291.1C827.7,611.9,900,630,902,573.8
		c2-62.2-84.3-64.2-112.5-118.4c-36.1-76.3-18.1-245-18.1-245C739.3,63.8,622.9,33.7,474.3,29.7L474.3,29.7z"/>
	<path d="M586.8,414.2c-2.7,32.7-31.4,57-64.1,54.3c-29-2.4-52-25.4-54.3-54.3c0-32.8,26.6-59.4,59.4-59.4
		c32.8,0,59.4,26.6,59.4,59.4v0H586.8z M126.8,30.7L122,987.2h255.2v-65.9l-140.7-2.4l5-810.9h141.7l-2.6-75.5L126.8,30.7
		L126.8,30.7z"/>
</g>
</svg>
