<?xml version="1.0" encoding="UTF-8"?>
<svg id="Layer_1" data-name="Layer 1" xmlns="http://www.w3.org/2000/svg" viewBox="0 0 2500 500.62">
  <defs>
    <style>
      .cls-1 {
        fill-rule: evenodd;
      }

      .cls-1, .cls-2 {
        fill: #388ee9;
        stroke-width: 0px;
      }
    </style>
  </defs>
  <path class="cls-2" d="m107.4,109.54l-58.21-8.32.99,6.46c2.04,13.3,12.92,23.47,26.32,24.6l1.16.1c14.31,1.21,27.2-8.68,29.73-22.83Z"/>
  <path class="cls-2" d="m310.89,289.82c62.37-17.9,105.93-75.79,105.93-140.79,0-80.78-65.64-146.49-146.32-146.49H3.45l.04,56.23c54.12-17.29,118.99,6.48,147.47,41.42,0,0,136.47-11.79,156.01,76.99,0,0-129.29-54.86-201.19,46.7-17.09,24.14-21.25,53.27-31.69,88.97-19.47,66.56-30.96,116.19-56.65,168.29h93.46l33.26-155.87h52.78l92.27,155.87h118.76l-110.24-184.58,11.85-6.33,1.32-.41Z"/>
  <path class="cls-1" d="m1837.02,481.02V88.86h128.72c37.88,0,71.81,7.03,101.14,21.88,29.57,14.98,52.58,37.26,68.64,66.41,16.22,29.1,23.7,64.24,23.7,104.36s-7.81,78.33-24.64,108.7c-16.45,30.26-40.38,53.24-71.32,68.54-30.69,15.17-66.88,22.28-107.82,22.28h-118.42Zm204.4-108.28c18.62-18.38,29.62-47.04,29.62-89.76,0-28.94-4.9-50.86-13.32-66.93l-.06-.12-.06-.12c-8.09-15.93-19.78-27.33-35.53-34.82l-.19-.09-.19-.09c-16.04-8.03-36.55-12.53-62.33-12.53h-36.61v233.34h26.8c44.34,0,73.62-10.87,91.87-28.87Zm406.07-99.66c13.58,7.82,24.59,18.57,32.69,32.09,9.41,15.68,13.27,34.63,13.27,55.38,0,24.56-5.69,46.84-18.09,65.86l-.07.09-.05.09c-12.32,18.5-29.76,32.22-51.3,41.46l-.1.04-.07.04c-21.16,8.85-45.62,12.9-72.79,12.9h-143.93V88.86h120.87c30.26,0,56.67,2.87,78.74,9.12,22.95,6.41,42.15,17.55,55.38,34.71,13.8,17.42,19.63,39.4,19.63,63.87,0,16.39-3.12,31.79-9.86,45.77-5.67,12.05-13.92,22.3-24.33,30.74Zm-154.7,129.02h49.86c29.65,0,44.03-6.03,50.06-12.07,7.62-7.63,12.06-17.91,12.06-32.92,0-9.25-2.03-16.19-5.31-21.61l-.14-.24-.14-.24c-2.22-3.91-6.77-8.31-16.39-12.02l-.3-.12-.3-.13c-8.8-3.71-22.67-6.22-42.96-6.22h-46.43v85.55Zm92.18-173.14c5.4-4.84,9.5-12.81,9.5-27.48,0-13.76-4.41-19.76-10.45-23.36l-.25-.15-.25-.16c-8.26-5.24-24.88-9.53-53.63-9.53h-37.1v69.84h43.97c29.29,0,43.1-4.91,48.21-9.16Zm-1741.68,212.23h1.31v39.85h90.08v-161.35c0-26.57-2.18-49.87-6.53-69.9-4.35-20.47-12.18-37.67-23.5-51.61-10.88-13.94-25.67-24.39-44.39-31.36-18.28-7.4-41.78-11.1-70.5-11.1-26.11,0-51.35,4.35-75.72,13.06-24.37,8.27-45.69,20.9-63.97,37.89l52.22,53.57c10.44-11.76,22.19-20.9,35.25-27.44,13.49-6.97,28.29-10.45,44.39-10.45,16.97,0,31.55,5.23,43.74,15.68,12.62,10.02,18.93,23.73,18.93,41.15-13.49,0-28.29.22-44.39.65-15.67.43-31.55,1.74-47.65,3.92-15.66,2.18-30.9,5.66-45.69,10.45-14.8,4.35-28.07,10.67-39.82,18.94-11.32,8.27-20.45,18.73-27.42,31.36-6.53,12.63-9.79,28.09-9.79,46.38,0,16.11,3.05,30.27,9.14,42.46,6.09,12.19,14.36,22.43,24.8,30.7,10.44,8.27,22.41,14.37,35.9,18.29,13.93,4.35,28.29,6.53,43.08,6.53,20.02,0,38.95-3.7,56.79-11.1,18.28-7.4,32.86-19.6,43.74-36.58Zm-22.85-99.29c-7.4,0-16.75.44-28.07,1.31-10.88.44-21.54,2.18-31.98,5.23-10.01,3.05-18.71,7.62-26.11,13.72-6.96,6.09-10.44,14.59-10.44,25.48,0,11.76,5,20.47,15.01,26.13,10.01,5.66,20.45,8.49,31.33,8.49,9.57,0,18.71-1.31,27.42-3.92,9.14-2.61,17.19-6.31,24.15-11.1,6.96-4.79,12.4-10.89,16.32-18.29,4.35-7.4,6.53-16.11,6.53-26.13v-20.91h-24.15Zm736.51,130.65c23.93-10.89,43.74-26.35,59.4-46.38l-68.54-50.3c-8.27,11.32-18.06,20.69-29.37,28.09-10.88,6.97-24.37,10.45-40.47,10.45-19.15,0-35.25-5.44-48.31-16.33-13.06-11.32-21.54-26.35-25.46-45.07h227.16v-30.7c0-25.26-3.48-48.12-10.44-68.59-6.96-20.47-16.97-37.89-30.03-52.26-12.62-14.81-28.29-26.13-47-33.97-18.28-7.84-38.73-11.76-61.36-11.76-24.37,0-47.43,3.92-69.19,11.76-21.33,7.84-40.04,19.16-56.14,33.97-15.67,14.37-28.07,31.79-37.21,52.26-9.14,20.47-13.71,43.33-13.71,68.59s4.57,48.12,13.71,68.59c9.14,20.47,21.54,38.11,37.21,52.91,16.1,14.37,34.81,25.48,56.14,33.32,21.76,7.84,44.82,11.76,69.19,11.76,25.68,0,50.48-5.44,74.42-16.33Zm-39.82-228.64c11.31,11.76,16.75,25.91,16.32,42.46h-129.25c.44-7.84,2.18-15.24,5.22-22.21,3.48-7.4,8.05-13.72,13.71-18.95,6.09-5.66,13.27-10.23,21.54-13.72,8.27-3.48,17.84-5.23,28.72-5.23,17.84,0,32.42,5.88,43.74,17.64Zm162.31-80.35h94v43.11h1.31c3.05-6.1,7.4-12.19,13.06-18.29,5.66-6.1,12.4-11.54,20.23-16.33,7.83-4.79,16.76-8.71,26.76-11.76,10.01-3.05,20.89-4.57,32.64-4.57,24.8,0,44.82,3.92,60.05,11.76,15.23,7.4,26.98,17.86,35.25,31.36,8.7,13.5,14.58,29.4,17.62,47.69,3.05,18.29,4.57,38.11,4.57,59.45v175.07h-97.92v-155.47c0-9.14-.43-18.51-1.31-28.09-.43-10.01-2.39-19.16-5.87-27.44-3.05-8.27-8.05-15.02-15.01-20.25-6.53-5.23-16.1-7.84-28.72-7.84s-22.85,2.39-30.68,7.18c-7.83,4.35-13.92,10.45-18.28,18.29-3.92,7.4-6.53,15.9-7.83,25.48-1.3,9.58-1.96,19.6-1.96,30.05v158.09h-97.92V163.55Zm-738,0h105.75l80.29,215.57h1.31l74.41-215.57h98.57l-125.33,317.48h-103.79l-131.21-317.48Z"/>
</svg>