<?xml version="1.0" encoding="UTF-8"?>
<svg id="Layer_1" data-name="Layer 1" xmlns="http://www.w3.org/2000/svg" viewBox="0 0 100 100">
  <defs>
    <style>
      .cls-1 {
        fill: #595b71;
      }

      .cls-1, .cls-2, .cls-3 {
        stroke-width: 0px;
      }

      .cls-2 {
        fill: #fff;
      }

      .cls-3 {
        fill: #388ee9;
      }
    </style>
  </defs>
  <polygon class="cls-2" points="87.74 7.53 81.83 7.53 18.17 7.53 12.26 7.53 12.26 13.43 12.26 86.57 12.26 92.47 18.17 92.47 81.83 92.47 87.74 92.47 87.74 86.57 87.74 13.43 87.74 7.53 87.74 7.53"/>
  <g>
    <path class="cls-1" d="m22.25,40.24v19.51h55.32v-19.51H22.25Zm26.13,12.75c-1.66,0-3-1.34-3-3s1.34-3,3-3,3,1.34,3,3-1.34,3-3,3Zm9.59,0c-1.66,0-3-1.34-3-3s1.34-3,3-3,3,1.34,3,3-1.34,3-3,3Zm9.59,0c-1.66,0-3-1.34-3-3s1.34-3,3-3,3,1.34,3,3-1.34,3-3,3Z"/>
    <path class="cls-1" d="m22.25,63.09v19.51h55.32v-19.51H22.25Zm26.13,12.75c-1.66,0-3-1.34-3-3s1.34-3,3-3,3,1.34,3,3-1.34,3-3,3Zm9.59,0c-1.66,0-3-1.34-3-3s1.34-3,3-3,3,1.34,3,3-1.34,3-3,3Zm9.59,0c-1.66,0-3-1.34-3-3s1.34-3,3-3,3,1.34,3,3-1.34,3-3,3Z"/>
    <path class="cls-1" d="m22.25,17.4v19.51h55.32v-19.51H22.25Zm26.13,12.75c-1.66,0-3-1.34-3-3s1.34-3,3-3,3,1.34,3,3-1.34,3-3,3Zm9.59,0c-1.66,0-3-1.34-3-3s1.34-3,3-3,3,1.34,3,3-1.34,3-3,3Zm9.59,0c-1.66,0-3-1.34-3-3s1.34-3,3-3,3,1.34,3,3-1.34,3-3,3Z"/>
    <path class="cls-3" d="m81.83,13.43v73.14H18.17V13.43h63.66m5.91-5.91H12.26v84.95h75.48V7.53h0Z"/>
  </g>
</svg>